<?xml version="1.0" standalone="no"?>
<svg xmlns="http://www.w3.org/2000/svg" viewBox="0 0 339.296 49.519999999999996" width="339.296" height="49.519999999999996"><rect fill="none" stroke="#4ad0ff" stroke-width="3" width="336.296" height="46.519999999999996" x="1.5" y="1.5"></rect><path fill="#0019ff" fill-rule="nonzero" d="M4.66 2.23L4.66 2.23Q4.66 3.60 4.75 6.96L4.75 6.96Q6.12 7.10 7.38 7.90Q8.64 8.69 9.38 9.77L9.38 9.77Q10.56 9.05 11.26 7.91Q11.95 6.77 11.95 5.57L11.95 5.57Q11.95 3.77 10.56 2.72Q9.17 1.68 7.10 1.68L7.10 1.68Q5.98 1.68 4.66 2.23ZM4.73 8.52L4.73 8.52L4.73 10.78Q5.28 10.82 6.10 10.82Q6.91 10.82 7.73 10.51L7.73 10.51Q6.70 8.98 4.73 8.52ZM3.07 10.61L3.07 10.61L3.07 8.42Q1.66 8.62 1.66 9.37Q1.66 10.13 3.07 10.61ZM15.55 18.50L15.74 18.50Q16.15 18.50 16.15 18.62L16.15 18.62L16.15 18.74Q16.15 19.37 15.73 19.86Q15.31 20.35 14.88 20.35Q14.45 20.35 13.92 20.06Q13.39 19.78 12.54 18.60Q11.69 17.42 10.80 15.72L10.80 15.72L8.59 11.86Q7.10 12.38 5.54 12.38L5.54 12.38Q4.92 12.38 4.75 12.36L4.75 12.36L4.90 17.38Q4.90 17.93 4.63 18.26Q4.37 18.60 3.91 18.60Q3.46 18.60 3.19 18.26Q2.93 17.93 2.93 17.05Q2.93 16.18 3.02 12.17L3.02 12.17Q1.54 11.83 0.77 11.09Q0 10.34 0 9.38Q0 8.42 0.85 7.70Q1.70 6.98 3.02 6.86L3.02 6.86L2.83 2.09Q2.83 1.06 3.67 0.65L3.67 0.65Q5.11 0 7.13 0L7.13 0Q10.06 0 11.94 1.58Q13.82 3.17 13.82 5.52L13.82 5.52Q13.82 7.18 12.85 8.70Q11.88 10.22 10.25 11.16L10.25 11.16Q12.96 16.06 13.42 16.75L13.42 16.75Q14.52 18.43 15.55 18.50L15.55 18.50ZM23.83 7.56L23.83 7.56Q22.25 7.56 21.18 8.75Q20.11 9.94 19.78 11.52L19.78 11.52Q21.07 11.90 22.69 11.90Q24.31 11.90 25.30 11.35Q26.28 10.80 26.28 9.84Q26.28 8.88 25.62 8.22Q24.96 7.56 23.83 7.56ZM22.80 13.42L22.80 13.42Q21.55 13.42 19.75 13.06L19.75 13.06Q19.90 14.76 21.01 15.96Q22.13 17.16 23.62 17.16Q25.10 17.16 26.06 16.43Q27.02 15.70 27.32 15.70Q27.62 15.70 27.80 15.88Q27.98 16.06 27.98 16.32L27.98 16.32Q27.98 16.99 26.60 17.86Q25.22 18.72 23.62 18.72L23.62 18.72Q21.12 18.72 19.64 16.96Q18.17 15.19 18.07 12.74L18.07 12.74Q16.80 12.34 16.80 11.50L16.80 11.50Q16.80 10.94 17.21 10.78L17.21 10.78Q17.35 10.73 17.58 10.73Q17.81 10.73 18.22 10.94L18.22 10.94Q18.77 8.76 20.22 7.38Q21.67 6 23.63 6Q25.58 6 26.78 7.08Q27.98 8.16 27.98 9.90Q27.98 11.64 26.50 12.53Q25.01 13.42 22.80 13.42ZM31.97 0.96L31.97 0.96Q32.95 0.96 32.95 2.11L32.95 2.11Q32.95 2.64 32.60 3.11Q32.26 3.58 31.78 3.58L31.78 3.58Q30.77 3.58 30.77 2.35L30.77 2.35Q30.77 1.78 31.12 1.37Q31.46 0.96 31.97 0.96ZM32.76 7.32L32.76 7.32L32.64 12.36L32.76 17.40Q32.76 18.60 31.85 18.60Q30.94 18.60 30.94 17.40L30.94 17.40L31.06 12.36L30.94 7.32Q30.94 6.12 31.85 6.12Q32.76 6.12 32.76 7.32ZM46.44 10.80L46.44 10.80L46.32 14.57L46.32 15.60Q46.37 16.58 46.80 16.78L46.80 16.78Q46.97 16.82 47.18 16.86Q47.40 16.90 47.48 16.94Q47.57 16.99 47.57 17.14L47.57 17.14Q47.57 17.76 47.17 18.18Q46.78 18.60 46.25 18.60L46.25 18.60Q45.36 18.60 45 17.90Q44.64 17.21 44.64 15.77L44.64 15.77L44.74 11.35Q44.74 9.70 44.03 8.70Q43.32 7.70 42.10 7.70Q40.87 7.70 39.73 9.06Q38.59 10.42 38.11 12.17L38.11 12.17L38.18 17.38Q38.18 18.60 37.27 18.60L37.27 18.60Q36.17 18.60 36.17 16.96Q36.17 15.31 36.65 12.17L36.65 12.17Q36.65 11.16 36.44 9.34Q36.24 7.51 36.24 7.13Q36.24 6.74 36.50 6.43Q36.77 6.12 37.18 6.12Q37.58 6.12 37.85 6.43Q38.11 6.74 38.11 7.10Q38.11 7.46 38.10 8.18Q38.09 8.90 38.09 9.17L38.09 9.17Q39.84 6.12 42.41 6.12L42.41 6.12Q44.33 6.12 45.38 7.50Q46.44 8.88 46.44 10.80ZM51.24 0.96L51.24 0.96Q52.22 0.96 52.22 2.11L52.22 2.11Q52.22 2.64 51.88 3.11Q51.53 3.58 51.05 3.58L51.05 3.58Q50.04 3.58 50.04 2.35L50.04 2.35Q50.04 1.78 50.39 1.37Q50.74 0.96 51.24 0.96ZM52.03 7.32L52.03 7.32L51.91 12.36L52.03 17.40Q52.03 18.60 51.12 18.60Q50.21 18.60 50.21 17.40L50.21 17.40L50.33 12.36L50.21 7.32Q50.21 6.12 51.12 6.12Q52.03 6.12 52.03 7.32ZM63.60 12.74L63.60 12.74L63.60 9.07Q62.28 7.68 60.68 7.68Q59.09 7.68 57.90 9.10Q56.71 10.51 56.71 12.49Q56.71 14.47 57.47 15.76Q58.22 17.04 59.52 17.04Q60.82 17.04 61.91 15.83Q63 14.62 63.60 12.74ZM63.55 7.25L63.55 7.25Q63.60 6.12 64.46 6.12L64.46 6.12Q65.57 6.12 65.57 7.76Q65.57 9.41 65.09 12.55L65.09 12.55Q65.38 15.48 65.38 16.92L65.38 16.92Q65.38 20.04 63.89 21.96Q62.40 23.88 59.76 23.88L59.76 23.88Q58.32 23.88 56.98 23.27Q55.63 22.66 55.63 22.04Q55.63 21.43 56.18 21.43L56.18 21.43Q56.40 21.43 57.41 21.88Q58.42 22.32 59.76 22.32L59.76 22.32Q61.68 22.32 62.78 20.89Q63.89 19.46 63.89 17.16L63.89 17.16Q63.89 16.32 63.77 15.43L63.77 15.43Q63.22 16.73 62.04 17.66Q60.86 18.60 59.59 18.60L59.59 18.60Q57.29 18.60 56.02 16.61L56.02 16.61Q54.94 14.81 54.94 12.41Q54.94 10.01 56.54 8.06Q58.15 6.12 60.55 6.12L60.55 6.12Q62.21 6.12 63.55 7.25ZM70.82 8.09L70.82 8.09L70.63 13.37Q70.63 15.02 71.34 16.03Q72.05 17.04 73.27 17.04Q74.50 17.04 75.65 15.67L75.65 15.67Q76.78 14.28 77.26 12.55L77.26 12.55L77.18 7.34Q77.18 6.12 78.10 6.12L78.10 6.12Q79.20 6.12 79.20 7.76Q79.20 9.41 78.72 12.55L78.72 12.55Q78.72 14.30 78.97 15.47Q79.22 16.63 79.61 16.78L79.61 16.78Q79.75 16.85 79.96 16.87Q80.16 16.90 80.24 16.94Q80.33 16.99 80.33 17.14L80.33 17.14Q80.33 17.78 79.93 18.19Q79.54 18.60 78.94 18.60L78.94 18.60Q77.42 18.60 77.42 15.53L77.42 15.53Q75.65 18.60 72.96 18.60L72.96 18.60Q71.04 18.60 69.98 17.18L69.98 17.18Q68.93 15.72 68.93 13.68L68.93 13.68L69.07 10.06Q69.07 9.31 68.88 8.27Q68.69 7.22 68.69 6.96Q68.69 6.70 68.99 6.41Q69.29 6.12 69.72 6.12L69.72 6.12Q70.82 6.12 70.82 8.09ZM93.12 10.80L93.12 10.80L93.00 14.57L93.00 15.60Q93.05 16.58 93.48 16.78L93.48 16.78Q93.65 16.82 93.86 16.86Q94.08 16.90 94.16 16.94Q94.25 16.99 94.25 17.14L94.25 17.14Q94.25 17.76 93.85 18.18Q93.46 18.60 92.93 18.60L92.93 18.60Q92.04 18.60 91.68 17.90Q91.32 17.21 91.32 15.77L91.32 15.77L91.42 11.35Q91.42 9.70 90.71 8.70Q90.00 7.70 88.78 7.70Q87.55 7.70 86.41 9.06Q85.27 10.42 84.79 12.17L84.79 12.17L84.86 17.38Q84.86 18.60 83.95 18.60L83.95 18.60Q82.85 18.60 82.85 16.96Q82.85 15.31 83.33 12.17L83.33 12.17Q83.33 11.16 83.12 9.34Q82.92 7.51 82.92 7.13Q82.92 6.74 83.18 6.43Q83.45 6.12 83.86 6.12Q84.26 6.12 84.53 6.43Q84.79 6.74 84.79 7.10Q84.79 7.46 84.78 8.18Q84.77 8.90 84.77 9.17L84.77 9.17Q86.52 6.12 89.09 6.12L89.09 6.12Q91.01 6.12 92.06 7.50Q93.12 8.88 93.12 10.80ZM104.90 12.74L104.90 12.74L104.90 9.07Q103.58 7.68 101.99 7.68Q100.39 7.68 99.20 9.10Q98.02 10.51 98.02 12.49Q98.02 14.47 98.77 15.76Q99.53 17.04 100.82 17.04Q102.12 17.04 103.21 15.83Q104.30 14.62 104.90 12.74ZM104.86 7.25L104.86 7.25Q104.90 6.12 105.77 6.12L105.77 6.12Q106.87 6.12 106.87 7.76Q106.87 9.41 106.39 12.55L106.39 12.55Q106.68 15.48 106.68 16.92L106.68 16.92Q106.68 20.04 105.19 21.96Q103.70 23.88 101.06 23.88L101.06 23.88Q99.62 23.88 98.28 23.27Q96.94 22.66 96.94 22.04Q96.94 21.43 97.49 21.43L97.49 21.43Q97.70 21.43 98.71 21.88Q99.72 22.32 101.06 22.32L101.06 22.32Q102.98 22.32 104.09 20.89Q105.19 19.46 105.19 17.16L105.19 17.16Q105.19 16.32 105.07 15.43L105.07 15.43Q104.52 16.73 103.34 17.66Q102.17 18.60 100.90 18.60L100.90 18.60Q98.59 18.60 97.32 16.61L97.32 16.61Q96.24 14.81 96.24 12.41Q96.24 10.01 97.85 8.06Q99.46 6.12 101.86 6.12L101.86 6.12Q103.51 6.12 104.86 7.25ZM118.49 14.90L118.49 14.90Q118.49 16.51 117.16 17.56Q115.82 18.60 113.98 18.60Q112.13 18.60 110.74 17.76L110.74 17.76Q109.37 16.90 109.37 16.06L109.37 16.06Q109.37 15.50 109.82 15.31Q110.28 15.12 110.52 15.36L110.52 15.36Q110.57 15.38 111.48 16.30L111.48 16.30Q111.74 16.54 112.46 16.79Q113.18 17.04 113.74 17.04L113.74 17.04Q115.08 17.04 115.92 16.49Q116.76 15.94 116.76 14.93L116.76 14.93Q116.76 13.66 114.36 12.84L114.36 12.84Q111.70 11.93 110.95 11.28L110.95 11.28Q110.59 10.97 110.29 10.45Q109.99 9.94 109.99 9.36L109.99 9.36Q109.99 8.06 111.18 7.09Q112.37 6.12 114.02 6.12Q115.68 6.12 116.71 6.68Q117.74 7.25 117.74 7.94L117.74 7.94Q117.74 8.74 116.90 8.74L116.90 8.74Q116.57 8.74 116.18 8.47L116.18 8.47Q115.03 7.68 113.96 7.68Q112.90 7.68 112.34 8.16L112.34 8.16Q111.70 8.62 111.70 9.23Q111.70 9.84 112.32 10.22Q112.94 10.61 114.36 11.17Q115.78 11.74 116.09 11.88L116.09 11.88Q117.14 12.34 117.82 13.13Q118.49 13.92 118.49 14.90ZM120.82 6.31L120.82 6.31L122.02 6.36L122.02 4.32Q122.02 2.21 122.84 1.16Q123.67 0.12 124.85 0.12Q126.02 0.12 126.80 0.55Q127.58 0.98 127.58 1.51L127.58 1.51Q127.58 2.30 126.91 2.30L126.91 2.30Q126.74 2.30 126.11 2.02Q125.47 1.73 125.11 1.73L125.11 1.73Q123.62 1.73 123.62 4.54L123.62 4.54L123.62 6.36L125.95 6.31Q126.34 6.31 126.60 6.52Q126.86 6.72 126.86 7.08L126.86 7.08Q126.86 7.80 125.95 7.80L125.95 7.80L123.62 7.75L123.70 16.37Q123.70 18.74 122.82 20.03Q121.94 21.31 121.02 21.31Q120.10 21.31 120.10 20.86L120.10 20.86Q120.10 20.66 120.28 20.48Q120.46 20.30 120.77 20.02Q121.08 19.73 121.30 19.42L121.30 19.42Q121.99 18.43 122.06 16.61Q122.14 14.78 122.14 12.34Q122.14 9.89 122.04 7.75L122.04 7.75L120.82 7.80Q119.90 7.80 119.90 7.08L119.90 7.08Q119.90 6.72 120.17 6.52Q120.43 6.31 120.82 6.31ZM130.08 0.96L130.08 0.96Q131.06 0.96 131.06 2.11L131.06 2.11Q131.06 2.64 130.72 3.11Q130.37 3.58 129.89 3.58L129.89 3.58Q128.88 3.58 128.88 2.35L128.88 2.35Q128.88 1.78 129.23 1.37Q129.58 0.96 130.08 0.96ZM130.87 7.32L130.87 7.32L130.75 12.36L130.87 17.40Q130.87 18.60 129.96 18.60Q129.05 18.60 129.05 17.40L129.05 17.40L129.17 12.36L129.05 7.32Q129.05 6.12 129.96 6.12Q130.87 6.12 130.87 7.32ZM136.22 12.86L136.22 12.86L136.30 17.38Q136.30 18.60 135.38 18.60L135.38 18.60Q134.28 18.60 134.28 16.96Q134.28 15.31 134.76 12.17L134.76 12.17Q134.76 11.16 134.56 9.35Q134.35 7.54 134.35 7.15Q134.35 6.77 134.62 6.44Q134.88 6.12 135.29 6.12Q135.70 6.12 135.96 6.44Q136.22 6.77 136.22 7.10Q136.22 7.44 136.21 8.18Q136.20 8.93 136.20 9.22L136.20 9.22Q136.66 8.02 137.69 7.06L137.69 7.06Q138.74 6.12 139.79 6.12Q140.83 6.12 141.44 6.54Q142.06 6.96 142.06 7.49Q142.06 8.02 141.79 8.30Q141.53 8.59 141.11 8.59Q140.69 8.59 140.18 8.16L140.18 8.16Q139.73 7.70 139.42 7.70L139.42 7.70Q138.62 7.70 137.57 9.42Q136.51 11.14 136.22 12.86ZM161.50 10.80L161.50 10.80L161.38 14.57L161.38 15.60Q161.42 16.58 161.86 16.78L161.86 16.78Q162.02 16.82 162.24 16.86Q162.46 16.90 162.54 16.94Q162.62 16.99 162.62 17.14L162.62 17.14Q162.62 17.76 162.23 18.18Q161.83 18.60 161.30 18.60L161.30 18.60Q160.42 18.60 160.06 17.90Q159.70 17.21 159.70 15.77L159.70 15.77L159.79 11.35Q159.79 9.70 159.14 8.70Q158.50 7.70 157.37 7.70Q156.24 7.70 155.16 9.07Q154.08 10.44 153.65 12.17L153.65 12.17L153.72 17.38Q153.72 18.60 152.81 18.60L152.81 18.60Q151.70 18.60 151.70 16.96Q151.70 15.31 152.18 12.17L152.18 12.17Q152.18 7.70 149.74 7.70L149.74 7.70Q148.61 7.70 147.53 9.07Q146.45 10.44 146.02 12.17L146.02 12.17L146.09 17.38Q146.09 18.60 145.18 18.60L145.18 18.60Q144.07 18.60 144.07 16.96Q144.07 15.31 144.55 12.17L144.55 12.17Q144.55 11.16 144.35 9.34Q144.14 7.51 144.14 7.13Q144.14 6.74 144.41 6.43Q144.67 6.12 145.08 6.12Q145.49 6.12 145.75 6.43Q146.02 6.74 146.02 7.10Q146.02 7.46 146.00 8.18Q145.99 8.90 145.99 9.17L145.99 9.17Q147.60 6.12 150.07 6.12L150.07 6.12Q151.46 6.12 152.36 6.94Q153.26 7.75 153.62 9.17L153.62 9.17Q155.23 6.12 157.70 6.12L157.70 6.12Q159.53 6.12 160.49 7.49L160.49 7.49Q161.50 8.86 161.50 10.80ZM174.70 12.55L174.70 12.55Q174.70 14.30 174.95 15.47Q175.20 16.63 175.58 16.78L175.58 16.78Q175.73 16.85 175.93 16.87Q176.14 16.90 176.22 16.94Q176.30 16.99 176.30 17.14L176.30 17.14Q176.30 17.81 175.94 18.20Q175.58 18.60 174.90 18.60Q174.22 18.60 173.83 17.72Q173.45 16.85 173.45 15.43L173.45 15.43Q172.80 16.82 171.65 17.71Q170.50 18.60 169.04 18.60Q167.59 18.60 166.56 17.64L166.56 17.64Q164.64 15.86 164.64 12.62L164.64 12.62Q164.64 10.01 166.15 8.06Q167.66 6.12 170.04 6.12L170.04 6.12Q171.84 6.12 173.16 7.34L173.16 7.34Q173.16 6.12 174.07 6.12L174.07 6.12Q175.18 6.12 175.18 7.76Q175.18 9.41 174.70 12.55ZM173.30 12.77L173.30 12.77L173.18 9.07Q171.77 7.68 170.18 7.68Q168.60 7.68 167.47 9.10Q166.34 10.51 166.34 12.52Q166.34 14.52 167.09 15.78Q167.83 17.04 169.15 17.04Q170.47 17.04 171.59 15.86Q172.70 14.69 173.30 12.77ZM187.39 14.40L187.39 14.40L187.51 11.28Q185.93 11.21 185.05 10.52Q184.18 9.84 184.18 8.93Q184.18 8.02 185.05 7.34Q185.93 6.67 187.51 6.43L187.51 6.43Q187.30 2.76 187.30 2.26L187.30 2.26Q187.30 0 191.66 0L191.66 0Q194.74 0 196.43 1.26Q198.12 2.52 198.12 4.39Q198.12 6.26 196.25 7.87L196.25 7.87Q199.44 9.62 199.44 12.53L199.44 12.53Q199.44 14.42 198.26 15.88Q197.09 17.33 195.22 18.02Q193.34 18.72 191.45 18.72L191.45 18.72Q189.34 18.72 187.58 18.20Q185.83 17.69 184.90 16.99Q183.96 16.30 183.96 15.83Q183.96 15.36 184.20 15.11Q184.44 14.86 184.78 14.86L184.78 14.86Q184.78 14.86 184.88 14.86Q184.99 14.86 185.53 15.18Q186.07 15.50 186.76 15.94Q187.44 16.37 188.56 16.70Q189.67 17.04 190.78 17.04L190.78 17.04Q190.85 17.04 190.92 17.04L190.92 17.04Q193.78 17.04 195.65 15.79Q197.52 14.54 197.52 12.58L197.52 12.58Q197.52 11.45 196.85 10.49Q196.18 9.53 195.02 8.95L195.02 8.95Q192.55 10.78 189.24 11.21L189.24 11.21L189.34 14.28Q189.34 14.38 189.34 14.45L189.34 14.45Q189.34 15.07 188.90 15.34L188.90 15.34Q188.64 15.50 188.38 15.50L188.38 15.50L187.85 15.34Q187.39 15.05 187.39 14.40ZM189.19 2.23L189.19 2.23Q189.19 3.07 189.24 6.29L189.24 6.29Q192.14 6.29 194.74 7.20L194.74 7.20Q196.34 5.98 196.34 4.51Q196.34 3.05 195.14 2.36Q193.94 1.68 192.16 1.68Q190.37 1.68 189.19 2.23ZM189.19 7.92L189.19 7.92L189.19 9.58Q190.25 9.53 191.53 9.16Q192.82 8.78 193.54 8.30L193.54 8.30Q192.22 7.87 189.86 7.87L189.86 7.87Q189.43 7.87 189.19 7.92ZM187.54 9.67L187.54 9.67L187.54 8.04Q185.83 8.23 185.83 8.83L185.83 8.83Q185.83 9.62 187.54 9.67ZM208.32 7.56L208.32 7.56Q206.74 7.56 205.67 8.75Q204.60 9.94 204.26 11.52L204.26 11.52Q205.56 11.90 207.18 11.90Q208.80 11.90 209.78 11.35Q210.77 10.80 210.77 9.84Q210.77 8.88 210.11 8.22Q209.45 7.56 208.32 7.56ZM207.29 13.42L207.29 13.42Q206.04 13.42 204.24 13.06L204.24 13.06Q204.38 14.76 205.50 15.96Q206.62 17.16 208.10 17.16Q209.59 17.16 210.55 16.43Q211.51 15.70 211.81 15.70Q212.11 15.70 212.29 15.88Q212.47 16.06 212.47 16.32L212.47 16.32Q212.47 16.99 211.09 17.86Q209.71 18.72 208.10 18.72L208.10 18.72Q205.61 18.72 204.13 16.96Q202.66 15.19 202.56 12.74L202.56 12.74Q201.29 12.34 201.29 11.50L201.29 11.50Q201.29 10.94 201.70 10.78L201.70 10.78Q201.84 10.73 202.07 10.73Q202.30 10.73 202.70 10.94L202.70 10.94Q203.26 8.76 204.71 7.38Q206.16 6 208.12 6Q210.07 6 211.27 7.08Q212.47 8.16 212.47 9.90Q212.47 11.64 210.98 12.53Q209.50 13.42 207.29 13.42ZM217.25 1.32L217.25 1.32L217.13 9.36L217.25 17.40Q217.25 18.60 216.34 18.60Q215.42 18.60 215.42 17.40L215.42 17.40L215.54 9.36L215.42 1.32Q215.42 0.12 216.34 0.12Q217.25 0.12 217.25 1.32ZM222.55 12.17L222.55 12.17L222.62 17.38Q222.62 18.60 221.71 18.60L221.71 18.60Q220.61 18.60 220.61 16.96Q220.61 15.31 221.09 12.17L221.09 12.17Q221.09 10.54 220.87 6.01Q220.66 1.49 220.66 1.13Q220.66 0.77 220.91 0.43Q221.16 0.10 221.44 0.10Q221.71 0.10 221.95 0.22L221.95 0.22Q222.53 0.48 222.53 1.15L222.53 1.15Q222.53 1.25 222.53 1.32L222.53 1.32L222.53 9.17Q224.28 6.12 226.85 6.12L226.85 6.12Q228.22 6.12 229.07 6.92Q229.92 7.73 229.92 8.93L229.92 8.93Q229.92 10.90 227.88 12.29L227.88 12.29L226.70 13.06L228.48 15.79Q228.79 16.30 229.19 16.56Q229.58 16.82 229.86 16.86Q230.14 16.90 230.30 16.94Q230.47 16.99 230.45 17.14L230.45 17.14Q230.45 17.71 230.09 18.16Q229.73 18.60 229.22 18.60L229.22 18.60Q229.13 18.60 228.84 18.60L228.84 18.60Q228.24 18.60 227.35 17.14L227.35 17.14Q227.33 17.06 227.29 17.02Q227.26 16.97 226.42 15.61Q225.58 14.26 225.10 13.58L225.10 13.58Q224.47 13.58 224.06 13.25Q223.66 12.91 223.66 12.29Q223.66 11.66 224.35 11.38L224.35 11.38Q224.54 11.30 224.74 11.30L224.74 11.30Q225.29 11.30 225.91 11.90L225.91 11.90Q226.82 11.50 227.53 10.66Q228.24 9.82 228.24 9.14L228.24 9.14Q228.24 7.70 226.75 7.70L226.75 7.70Q225.41 7.70 224.21 9.05Q223.01 10.39 222.55 12.17ZM243.38 12.10L243.38 12.10Q243.38 14.71 241.87 16.66Q240.36 18.60 237.98 18.60L237.98 18.60Q236.21 18.60 234.86 17.38L234.86 17.38Q234.86 18.60 233.95 18.60L233.95 18.60Q232.85 18.60 232.85 16.96Q232.85 15.31 233.33 12.17L233.33 12.17Q233.33 10.54 233.11 6.01Q232.90 1.49 232.90 1.13Q232.90 0.77 233.15 0.43Q233.40 0.10 233.68 0.10Q233.95 0.10 234.19 0.22L234.19 0.22Q234.77 0.48 234.77 1.15L234.77 1.15Q234.77 1.25 234.77 1.32L234.77 1.32L234.77 8.90Q235.42 7.66 236.52 6.89Q237.62 6.12 239.02 6.12Q240.41 6.12 241.44 7.08L241.44 7.08Q243.38 8.86 243.38 12.10ZM234.72 11.95L234.72 11.95L234.84 15.65Q236.26 17.04 237.84 17.04Q239.42 17.04 240.55 15.62Q241.68 14.21 241.68 12.20Q241.68 10.20 240.94 8.94Q240.19 7.68 238.87 7.68Q237.55 7.68 236.44 8.86Q235.32 10.03 234.72 11.95ZM247.32 0.96L247.32 0.96Q248.30 0.96 248.30 2.11L248.30 2.11Q248.30 2.64 247.96 3.11Q247.61 3.58 247.13 3.58L247.13 3.58Q246.12 3.58 246.12 2.35L246.12 2.35Q246.12 1.78 246.47 1.37Q246.82 0.96 247.32 0.96ZM248.11 7.32L248.11 7.32L247.99 12.36L248.11 17.40Q248.11 18.60 247.20 18.60Q246.29 18.60 246.29 17.40L246.29 17.40L246.41 12.36L246.29 7.32Q246.29 6.12 247.20 6.12Q248.11 6.12 248.11 7.32ZM253.46 12.86L253.46 12.86L253.54 17.38Q253.54 18.60 252.62 18.60L252.62 18.60Q251.52 18.60 251.52 16.96Q251.52 15.31 252 12.17L252 12.17Q252 11.16 251.80 9.35Q251.59 7.54 251.59 7.15Q251.59 6.77 251.86 6.44Q252.12 6.12 252.53 6.12Q252.94 6.12 253.20 6.44Q253.46 6.77 253.46 7.10Q253.46 7.44 253.45 8.18Q253.44 8.93 253.44 9.22L253.44 9.22Q253.90 8.02 254.93 7.06L254.93 7.06Q255.98 6.12 257.03 6.12Q258.07 6.12 258.68 6.54Q259.30 6.96 259.30 7.49Q259.30 8.02 259.03 8.30Q258.77 8.59 258.35 8.59Q257.93 8.59 257.42 8.16L257.42 8.16Q256.97 7.70 256.66 7.70L256.66 7.70Q255.86 7.70 254.81 9.42Q253.75 11.14 253.46 12.86Z" transform="translate(12 12.82)"></path><line x1="283.296" y1="0" x2="283.296" y2="100%" stroke="#4ad0ff" stroke-width="3"></line><g fill="#0019ff" color="#0019ff" transform="translate(296.796, 12) scale(0.58)"><svg width="50.0" height="44.0" x="0.0" y="0.0" viewBox="0 0 50 44"><path fill="currentColor" fill-rule="evenodd" d="M44.448 20.802l-2.514 2.514-1.677-1.676 2.515-2.514a8.433 8.433 0 0 0 2.454-5.926c0-2.215-.898-4.31-2.454-5.927a8.346 8.346 0 0 0-11.853 0l-2.514 2.514-1.676-1.676 2.514-2.514c4.19-4.19 11.014-4.19 15.265 0 4.13 4.13 4.13 11.015-.06 15.205zm-7.603-2.574l2.514-2.514c.659-.659 1.078-1.557 1.078-2.514 0-.958-.36-1.856-1.078-2.515-.718-.658-1.556-1.077-2.514-1.077-.958 0-1.855.36-2.514 1.077L31.817 13.2l-1.676-1.677 2.514-2.514a5.961 5.961 0 0 1 8.44 0c1.138 1.138 1.736 2.634 1.736 4.25 0 1.617-.598 3.113-1.736 4.25l-2.514 2.515-1.736-1.796zm-3.412-3.352l2.514-2.514c.48-.48 1.257-.48 1.676 0 .24.239.36.538.36.838 0 .299-.12.598-.36.838l-2.454 2.514-1.736-1.676zM3.861 3.86a13.151 13.151 0 0 1 18.617 0l2.515 2.514 2.574-2.514a13.151 13.151 0 0 1 18.617 0c5.088 5.148 5.088 13.47 0 18.677l-4.19 4.19-21.192-21.19c-4.25-4.191-11.074-4.191-15.265 0-4.19 4.25-4.19 11.074 0 15.264L26.67 41.993l-1.676 1.677L3.86 22.478a13.151 13.151 0 0 1 0-18.617zm9.279.958c2.215 0 4.37.898 5.926 2.454l21.192 21.192-1.677 1.676-21.19-21.192c-1.138-1.137-2.635-1.736-4.251-1.736-1.616 0-3.113.599-4.25 1.736-1.138 1.138-1.736 2.634-1.736 4.25 0 1.617.598 3.113 1.736 4.25l21.19 21.192-1.675 1.616L7.214 19.126A8.433 8.433 0 0 1 4.759 13.2c0-2.215.898-4.37 2.455-5.927A8.433 8.433 0 0 1 13.14 4.82zm2.574 5.806l21.192 21.192-1.737 1.676-21.191-21.191a1.157 1.157 0 0 0-1.676 0 1.157 1.157 0 0 0 0 1.676l21.131 21.191-1.676 1.676-21.132-21.131c-1.376-1.377-1.376-3.652 0-5.089 1.377-1.376 3.652-1.376 5.089 0z"></path></svg></g></svg>